# xmcd
#
# Track frame offsets:
#	150
#	16090
#	35570
#	45662
#	55100
#	69625
#	82505
#	97567
#	110379
#	123607
#	138377
#	149555
#	164592
#	181345
#	185587
#	213242
#	236515
#	261255
#	275267
#
# Disc length: 3819 seconds
# Revision: 0
# Processed by: cddbd v1.5.2PL0 Copyright (c) Steve Scherf et al.
# Submitted via: dBpowerAMP V12.0
#
DISCID=050ee913
DTITLE=Fleetwood Mac - Peter Green's Fleetwood Mac
DYEAR=1968
DGENRE=Rock
TTITLE0=My Heart Beat Like a Hammer (Take 2)
TTITLE1=Merry Go Round (Take 2)
TTITLE2=Long Grey Home
TTITLE3=Hellhound on My Trail (Take 1)
TTITLE4=Shake Your Moneymaker
TTITLE5=Looking for Somebody
TTITLE6=No Place to Go
TTITLE7=My Baby's Good to Me
TTITLE8=I Loved Another Woman
TTITLE9=Cold Black Night
TTITLE10=The World Keep on Turning
TTITLE11=Got to Move
TTITLE12=My Heart Beat Like a Hammer (Take 1)
TTITLE13=Merry-Go-Round (Take 1)
TTITLE14=I Loved Another Woman (Take 1, 2, 3 and 4)
TTITLE15=I Loved Another Woman (Take 5 and 6)
TTITLE16=Cold Black Night (Take 1, 2, 3, 4, 5 and 6)
TTITLE17=You're So Evil
TTITLE18=I'm Coming Home to Stay
EXTD=
EXTT0=
EXTT1=
EXTT2=
EXTT3=
EXTT4=
EXTT5=
EXTT6=
EXTT7=
EXTT8=
EXTT9=
EXTT10=
EXTT11=
EXTT12=
EXTT13=
EXTT14=
EXTT15=
EXTT16=
EXTT17=
EXTT18=
PLAYORDER=
